<mxfile host="app.diagrams.net" modified="2024-02-08T23:51:02.178Z" agent="Mozilla/5.0 (Windows NT 10.0; Win64; x64) AppleWebKit/537.36 (KHTML, like Gecko) Chrome/121.0.0.0 Safari/537.36" etag="luRjlhjympjbObZKCLDo" version="23.1.2" type="device">
  <diagram name="Страница — 1" id="J1Iw2wB6reBTX4gbtBwQ">
    <mxGraphModel dx="965" dy="1696" grid="1" gridSize="10" guides="1" tooltips="1" connect="1" arrows="1" fold="1" page="1" pageScale="1" pageWidth="827" pageHeight="1169" math="0" shadow="0">
      <root>
        <mxCell id="0" />
        <mxCell id="1" parent="0" />
        <mxCell id="x-_jwHLoxZPlpVNy7105-48" value="" style="rounded=1;whiteSpace=wrap;html=1;fillColor=#b0e3e6;strokeColor=#0e8088;" vertex="1" parent="1">
          <mxGeometry y="-7.5" width="170" height="130" as="geometry" />
        </mxCell>
        <mxCell id="x-_jwHLoxZPlpVNy7105-12" value="" style="rounded=1;whiteSpace=wrap;html=1;fillColor=#ffe6cc;strokeColor=#d79b00;" vertex="1" parent="1">
          <mxGeometry x="340" y="-20" width="450" height="160" as="geometry" />
        </mxCell>
        <mxCell id="x-_jwHLoxZPlpVNy7105-13" value="" style="rounded=1;whiteSpace=wrap;html=1;fillColor=#d5e8d4;strokeColor=#82b366;" vertex="1" parent="1">
          <mxGeometry x="180" y="-10" width="150" height="140" as="geometry" />
        </mxCell>
        <mxCell id="x-_jwHLoxZPlpVNy7105-1" value="" style="fontColor=#0066CC;verticalAlign=top;verticalLabelPosition=bottom;labelPosition=center;align=center;html=1;outlineConnect=0;fillColor=#CCCCCC;strokeColor=#6881B3;gradientColor=none;gradientDirection=north;strokeWidth=2;shape=mxgraph.networks.mobile;" vertex="1" parent="1">
          <mxGeometry x="150" y="10" width="50" height="100" as="geometry" />
        </mxCell>
        <mxCell id="x-_jwHLoxZPlpVNy7105-2" value="" style="fontColor=#0066CC;verticalAlign=top;verticalLabelPosition=bottom;labelPosition=center;align=center;html=1;outlineConnect=0;fillColor=#CCCCCC;strokeColor=#6881B3;gradientColor=none;gradientDirection=north;strokeWidth=2;shape=mxgraph.networks.radio_tower;" vertex="1" parent="1">
          <mxGeometry x="10" y="10" width="55" height="100" as="geometry" />
        </mxCell>
        <mxCell id="x-_jwHLoxZPlpVNy7105-3" value="" style="fontColor=#0066CC;verticalAlign=middle;verticalLabelPosition=middle;labelPosition=center;align=left;html=1;outlineConnect=0;fillColor=#CCCCCC;strokeColor=#000000;gradientColor=none;gradientDirection=north;strokeWidth=2;shape=stencil(rVRNT8MwDP01uVZpwiAcUSnHXXrgHLp0i+iSKgnb4Nfj1gWRQj9WUUWq/Jz4+SW2Cc/8QTaKMCp9o8pA+CNh7CSdli81wAw8BwRTStE28qgQyi9BOSNrAItgndz3J3xw9lWd9S70ZxniZ7TEXWvynNAHANvFs9IaA/zaGh95fvghqtQmRBlsMXCjnD4qSAbRPtFLbyUbtN8jL2FP1zAVK5jSVUzPS5hiRV+8VzLlC5jSf2HarhHF1nEVi7gSygZ092KdtCW3CNEHRfjNP6TjGSBj7cCzyjq1d/bN7P5M0suTmtDQHXRto0PHu9Lrj16FSDiP2l3QqGdvp55qrqUqXdc4E2Y2lba2Dkz8d7EJ41X3TVOMCtvQWFY8iSJRNyJSJWbqoU14KiPlYSZOPgamO+ZedGOjm7oy+lUsHYojvwM+AQ==);points=[[0.01,0.63,0,0,0],[0.5,1,0,0,0]];movable=1;resizable=1;rotatable=1;deletable=1;editable=1;locked=0;connectable=1;" vertex="1" parent="1">
          <mxGeometry x="298" y="-23" width="116" height="133" as="geometry" />
        </mxCell>
        <mxCell id="x-_jwHLoxZPlpVNy7105-4" value="" style="fontColor=#0066CC;verticalAlign=top;verticalLabelPosition=bottom;labelPosition=center;align=center;html=1;outlineConnect=0;fillColor=#CCCCCC;strokeColor=#6881B3;gradientColor=none;gradientDirection=north;strokeWidth=2;shape=mxgraph.networks.wireless_hub;" vertex="1" parent="1">
          <mxGeometry x="420" y="15" width="100" height="85" as="geometry" />
        </mxCell>
        <mxCell id="x-_jwHLoxZPlpVNy7105-5" value="" style="sketch=0;aspect=fixed;pointerEvents=1;shadow=0;dashed=0;html=1;strokeColor=none;labelPosition=center;verticalLabelPosition=bottom;verticalAlign=top;align=center;fillColor=#00188D;shape=mxgraph.mscae.enterprise.wireless_connection;rotation=-180;" vertex="1" parent="1">
          <mxGeometry x="126.4" y="71.5" width="23.6" height="28.1" as="geometry" />
        </mxCell>
        <mxCell id="x-_jwHLoxZPlpVNy7105-7" value="" style="sketch=0;aspect=fixed;pointerEvents=1;shadow=0;dashed=0;html=1;strokeColor=#FFFFFF;labelPosition=center;verticalLabelPosition=bottom;verticalAlign=top;align=center;fillColor=#000000;shape=mxgraph.mscae.enterprise.wireless_connection;rotation=0;fontColor=#ffffff;" vertex="1" parent="1">
          <mxGeometry x="202" y="20.6" width="14.2" height="16.9" as="geometry" />
        </mxCell>
        <mxCell id="x-_jwHLoxZPlpVNy7105-8" value="" style="fontColor=#0066CC;verticalAlign=top;verticalLabelPosition=bottom;labelPosition=center;align=center;html=1;outlineConnect=0;fillColor=#CCCCCC;strokeColor=#6881B3;gradientColor=none;gradientDirection=north;strokeWidth=2;shape=mxgraph.networks.pc;" vertex="1" parent="1">
          <mxGeometry x="638.2" y="56.05" width="100" height="70" as="geometry" />
        </mxCell>
        <mxCell id="x-_jwHLoxZPlpVNy7105-9" value="" style="fontColor=#0066CC;verticalAlign=top;verticalLabelPosition=bottom;labelPosition=center;align=center;html=1;outlineConnect=0;fillColor=#CCCCCC;strokeColor=#6881B3;gradientColor=none;gradientDirection=north;strokeWidth=2;shape=mxgraph.networks.tablet;" vertex="1" parent="1">
          <mxGeometry x="670" y="-10" width="100" height="70" as="geometry" />
        </mxCell>
        <mxCell id="x-_jwHLoxZPlpVNy7105-10" value="" style="fontColor=#0066CC;verticalAlign=top;verticalLabelPosition=bottom;labelPosition=center;align=center;html=1;outlineConnect=0;fillColor=#CCCCCC;strokeColor=#6881B3;gradientColor=none;gradientDirection=north;strokeWidth=2;shape=mxgraph.networks.mobile;" vertex="1" parent="1">
          <mxGeometry x="590" y="-10" width="50" height="100" as="geometry" />
        </mxCell>
        <mxCell id="x-_jwHLoxZPlpVNy7105-16" value="&lt;b&gt;&lt;font style=&quot;font-size: 20px;&quot;&gt;5G&lt;/font&gt;&lt;/b&gt;" style="text;html=1;align=center;verticalAlign=middle;resizable=0;points=[];autosize=1;strokeColor=none;fillColor=none;" vertex="1" parent="1">
          <mxGeometry x="65" y="-13.450000000000003" width="50" height="40" as="geometry" />
        </mxCell>
        <mxCell id="x-_jwHLoxZPlpVNy7105-17" style="edgeStyle=orthogonalEdgeStyle;rounded=0;orthogonalLoop=1;jettySize=auto;html=1;entryX=0.92;entryY=0.5;entryDx=0;entryDy=0;entryPerimeter=0;" edge="1" parent="1" target="x-_jwHLoxZPlpVNy7105-5">
          <mxGeometry relative="1" as="geometry">
            <mxPoint x="70" y="30" as="sourcePoint" />
            <Array as="points">
              <mxPoint x="80" y="30" />
              <mxPoint x="80" y="86" />
            </Array>
          </mxGeometry>
        </mxCell>
        <mxCell id="x-_jwHLoxZPlpVNy7105-20" value="" style="sketch=0;aspect=fixed;pointerEvents=1;shadow=0;dashed=0;html=1;strokeColor=#FFFFFF;labelPosition=center;verticalLabelPosition=bottom;verticalAlign=top;align=center;fillColor=#000000;shape=mxgraph.mscae.enterprise.wireless_connection;rotation=-180;fontColor=#ffffff;" vertex="1" parent="1">
          <mxGeometry x="275.8" y="20.6" width="14.2" height="16.9" as="geometry" />
        </mxCell>
        <mxCell id="x-_jwHLoxZPlpVNy7105-21" value="WiFi&amp;nbsp;&lt;br&gt;Mobile AP" style="text;strokeColor=none;align=center;fillColor=none;html=1;verticalAlign=middle;whiteSpace=wrap;rounded=0;" vertex="1" parent="1">
          <mxGeometry x="224.99999999999997" y="-7" width="60" height="30" as="geometry" />
        </mxCell>
        <mxCell id="x-_jwHLoxZPlpVNy7105-25" style="edgeStyle=orthogonalEdgeStyle;rounded=0;orthogonalLoop=1;jettySize=auto;html=1;exitX=0.75;exitY=1;exitDx=0;exitDy=0;entryX=0.5;entryY=1;entryDx=0;entryDy=0;entryPerimeter=0;endArrow=diamond;endFill=1;startArrow=diamond;startFill=1;strokeColor=#666666;" edge="1" parent="1" source="x-_jwHLoxZPlpVNy7105-29" target="x-_jwHLoxZPlpVNy7105-4">
          <mxGeometry relative="1" as="geometry">
            <Array as="points">
              <mxPoint x="355" y="120" />
              <mxPoint x="470" y="120" />
            </Array>
          </mxGeometry>
        </mxCell>
        <mxCell id="x-_jwHLoxZPlpVNy7105-39" value="192.168.0.0/24" style="edgeLabel;html=1;align=center;verticalAlign=middle;resizable=0;points=[];labelBackgroundColor=none;fontColor=#1A1A1A;" vertex="1" connectable="0" parent="x-_jwHLoxZPlpVNy7105-25">
          <mxGeometry x="-0.159" y="-1" relative="1" as="geometry">
            <mxPoint x="25" y="7" as="offset" />
          </mxGeometry>
        </mxCell>
        <mxCell id="x-_jwHLoxZPlpVNy7105-38" value="" style="edgeStyle=orthogonalEdgeStyle;rounded=0;orthogonalLoop=1;jettySize=auto;html=1;" edge="1" parent="1" source="x-_jwHLoxZPlpVNy7105-29" target="x-_jwHLoxZPlpVNy7105-31">
          <mxGeometry relative="1" as="geometry" />
        </mxCell>
        <mxCell id="x-_jwHLoxZPlpVNy7105-29" value="eth0 ( 192.168.0.110 )&lt;br&gt;DHCP server" style="rounded=0;whiteSpace=wrap;html=1;verticalAlign=middle;fontSize=5;" vertex="1" parent="1">
          <mxGeometry x="310" y="71.5" width="60" height="19" as="geometry" />
        </mxCell>
        <mxCell id="x-_jwHLoxZPlpVNy7105-36" value="NAT" style="edgeStyle=orthogonalEdgeStyle;rounded=0;orthogonalLoop=1;jettySize=auto;html=1;exitX=0.5;exitY=1;exitDx=0;exitDy=0;entryX=0.5;entryY=0;entryDx=0;entryDy=0;startArrow=baseDash;startFill=0;endArrow=baseDash;endFill=0;fontSize=6;" edge="1" parent="1" source="x-_jwHLoxZPlpVNy7105-30" target="x-_jwHLoxZPlpVNy7105-29">
          <mxGeometry x="-0.3926" relative="1" as="geometry">
            <mxPoint as="offset" />
          </mxGeometry>
        </mxCell>
        <mxCell id="x-_jwHLoxZPlpVNy7105-30" value="mlan0 ( 192.168.7.135 )&lt;br&gt;WiFi client" style="rounded=0;whiteSpace=wrap;html=1;verticalAlign=middle;fontSize=5;" vertex="1" parent="1">
          <mxGeometry x="310" y="34" width="60" height="19" as="geometry" />
        </mxCell>
        <mxCell id="x-_jwHLoxZPlpVNy7105-22" style="edgeStyle=orthogonalEdgeStyle;rounded=0;orthogonalLoop=1;jettySize=auto;html=1;entryX=0;entryY=0.5;entryDx=0;entryDy=0;startArrow=classic;startFill=1;exitX=1;exitY=0.5;exitDx=0;exitDy=0;" edge="1" parent="1" source="x-_jwHLoxZPlpVNy7105-32" target="x-_jwHLoxZPlpVNy7105-30">
          <mxGeometry relative="1" as="geometry" />
        </mxCell>
        <mxCell id="x-_jwHLoxZPlpVNy7105-24" value="192.168.x.z" style="edgeLabel;html=1;align=center;verticalAlign=middle;resizable=0;points=[];labelBackgroundColor=none;" vertex="1" connectable="0" parent="x-_jwHLoxZPlpVNy7105-22">
          <mxGeometry x="-0.3021" relative="1" as="geometry">
            <mxPoint x="18" y="10" as="offset" />
          </mxGeometry>
        </mxCell>
        <mxCell id="x-_jwHLoxZPlpVNy7105-31" value="SteamLink" style="text;strokeColor=none;align=center;fillColor=none;html=1;verticalAlign=middle;whiteSpace=wrap;rounded=0;" vertex="1" parent="1">
          <mxGeometry x="310" y="7.5" width="60" height="30" as="geometry" />
        </mxCell>
        <mxCell id="x-_jwHLoxZPlpVNy7105-32" value="AP DHCP&lt;br style=&quot;font-size: 5px;&quot;&gt;server" style="rounded=0;whiteSpace=wrap;html=1;verticalAlign=middle;fontSize=5;" vertex="1" parent="1">
          <mxGeometry x="159" y="34" width="32" height="19" as="geometry" />
        </mxCell>
        <mxCell id="x-_jwHLoxZPlpVNy7105-35" value="Internal WiFi Network" style="text;strokeColor=none;align=center;fillColor=none;html=1;verticalAlign=middle;whiteSpace=wrap;rounded=0;" vertex="1" parent="1">
          <mxGeometry x="370" y="-15" width="157.1" height="30" as="geometry" />
        </mxCell>
        <mxCell id="x-_jwHLoxZPlpVNy7105-40" value="" style="sketch=0;aspect=fixed;pointerEvents=1;shadow=0;dashed=0;html=1;strokeColor=none;labelPosition=center;verticalLabelPosition=bottom;verticalAlign=top;align=center;fillColor=#00188D;shape=mxgraph.mscae.enterprise.wireless_connection;rotation=-180;" vertex="1" parent="1">
          <mxGeometry x="566.4" y="-7.5" width="23.6" height="28.1" as="geometry" />
        </mxCell>
        <mxCell id="x-_jwHLoxZPlpVNy7105-41" value="" style="sketch=0;aspect=fixed;pointerEvents=1;shadow=0;dashed=0;html=1;strokeColor=none;labelPosition=center;verticalLabelPosition=bottom;verticalAlign=top;align=center;fillColor=#00188D;shape=mxgraph.mscae.enterprise.wireless_connection;rotation=-180;" vertex="1" parent="1">
          <mxGeometry x="614.6" y="97.94999999999999" width="23.6" height="28.1" as="geometry" />
        </mxCell>
        <mxCell id="x-_jwHLoxZPlpVNy7105-42" value="" style="sketch=0;aspect=fixed;pointerEvents=1;shadow=0;dashed=0;html=1;strokeColor=none;labelPosition=center;verticalLabelPosition=bottom;verticalAlign=top;align=center;fillColor=#00188D;shape=mxgraph.mscae.enterprise.wireless_connection;rotation=-180;" vertex="1" parent="1">
          <mxGeometry x="646.4" y="-7.499999999999993" width="23.6" height="28.1" as="geometry" />
        </mxCell>
        <mxCell id="x-_jwHLoxZPlpVNy7105-43" value="192.168.0.115" style="text;strokeColor=none;align=center;fillColor=none;html=1;verticalAlign=middle;whiteSpace=wrap;rounded=0;fontSize=7;" vertex="1" parent="1">
          <mxGeometry x="658.1999999999999" y="80.00000000000001" width="60" height="10" as="geometry" />
        </mxCell>
        <mxCell id="x-_jwHLoxZPlpVNy7105-44" value="192.168.0.116" style="text;strokeColor=none;align=center;fillColor=none;html=1;verticalAlign=middle;whiteSpace=wrap;rounded=0;fontSize=7;" vertex="1" parent="1">
          <mxGeometry x="680" y="1.4210854715202004e-14" width="60" height="10" as="geometry" />
        </mxCell>
        <mxCell id="x-_jwHLoxZPlpVNy7105-45" value="192.168.0.117" style="text;strokeColor=none;align=center;fillColor=none;html=1;verticalAlign=middle;whiteSpace=wrap;rounded=0;fontSize=6;rotation=0;" vertex="1" parent="1">
          <mxGeometry x="588.2" width="53.6" height="16" as="geometry" />
        </mxCell>
        <mxCell id="x-_jwHLoxZPlpVNy7105-46" value="Bridge" style="text;strokeColor=none;align=center;fillColor=none;html=1;verticalAlign=middle;whiteSpace=wrap;rounded=0;fontColor=#1A1A1A;" vertex="1" parent="1">
          <mxGeometry x="445" y="77.95" width="50" height="20" as="geometry" />
        </mxCell>
      </root>
    </mxGraphModel>
  </diagram>
</mxfile>
